<?xml version="1.0" standalone="no"?>
<!DOCTYPE svg PUBLIC "-//W3C//DTD SVG 20010904//EN"
 "http://www.w3.org/TR/2001/REC-SVG-20010904/DTD/svg10.dtd">
<svg version="1.0" xmlns="http://www.w3.org/2000/svg"
 width="500.000000pt" height="500.000000pt" viewBox="0 0 500.000000 500.000000"
 preserveAspectRatio="xMidYMid meet">

<g transform="translate(0.000000,500.000000) scale(0.100000,-0.100000)"
fill="#000000" stroke="none">
<path d="M2230 4184 c-97 -12 -260 -48 -342 -75 -750 -249 -1233 -969 -1170
-1746 20 -250 63 -406 173 -628 233 -473 658 -804 1176 -916 121 -27 452 -38
586 -20 173 23 341 77 522 167 440 219 764 616 889 1090 183 697 -101 1443
-702 1845 -194 130 -376 207 -606 255 -99 21 -154 26 -306 29 -102 2 -201 1
-220 -1z m482 -45 c234 -42 507 -159 693 -296 120 -89 294 -266 378 -383 79
-112 183 -318 226 -447 204 -628 29 -1307 -454 -1754 -233 -216 -510 -357
-827 -421 -163 -33 -462 -33 -626 0 -152 31 -306 82 -427 143 -470 237 -795
657 -905 1174 -34 156 -39 450 -12 612 29 166 81 322 163 483 259 509 756 849
1334 910 113 12 329 2 457 -21z"/>
<path d="M2205 4115 c-535 -68 -1003 -403 -1249 -894 -94 -186 -152 -405 -163
-608 l-6 -123 419 0 419 -1 -66 -28 c-73 -31 -218 -122 -290 -182 -26 -22 -49
-39 -52 -39 -4 0 5 29 18 65 34 89 33 101 -5 73 -26 -19 -35 -21 -60 -11 -17
6 -30 8 -30 3 0 -21 69 -27 89 -7 21 19 6 -34 -34 -120 -42 -91 -77 -137 -120
-157 -31 -15 -38 -15 -71 -1 -45 19 -50 19 -34 0 7 -8 27 -17 45 -21 46 -8 95
17 131 68 16 23 47 60 68 81 l40 40 15 -24 c8 -13 40 -49 71 -80 88 -88 176
-100 278 -37 49 30 32 33 -23 3 -89 -47 -180 -29 -256 52 -37 39 -69 83 -69
94 0 9 147 111 210 146 112 63 261 104 299 83 59 -31 -24 -122 -96 -106 -27 6
-27 6 -8 -9 28 -22 63 -11 103 30 52 56 37 105 -32 105 l-26 0 0 473 c0 259
-5 490 -10 512 -5 25 -20 50 -39 66 -55 46 -46 49 139 49 135 0 170 -3 170
-13 0 -8 -11 -19 -26 -25 -54 -25 -58 -56 -61 -422 l-3 -335 276 280 c314 319
358 367 379 419 15 35 15 37 -10 60 -14 13 -25 26 -25 30 0 3 65 6 145 6 117
0 145 -3 145 -14 0 -8 -23 -21 -52 -31 -101 -33 -141 -65 -400 -329 l-257
-261 107 -6 c158 -10 223 -43 292 -151 21 -32 40 -64 42 -70 2 -6 41 15 88 47
156 106 275 144 480 152 99 4 159 1 226 -11 102 -17 240 -58 266 -78 13 -10
17 -37 20 -135 3 -90 1 -123 -8 -123 -6 0 -18 15 -25 33 -19 44 -154 180 -209
207 -92 47 -152 62 -270 67 -130 6 -200 -7 -309 -57 -71 -34 -211 -164 -210
-196 0 -11 13 -50 28 -89 l29 -70 701 -3 701 -2 0 89 c0 188 -63 438 -160 636
-308 628 -979 989 -1675 900z"/>
<path d="M1967 2851 l-77 -79 0 -141 0 -141 240 0 240 0 25 50 25 49 -20 50
c-87 222 -159 291 -302 291 l-55 0 -76 -79z"/>
<path d="M3300 2391 c-77 -25 -113 -45 -144 -81 -26 -31 -35 -70 -16 -70 6 0
10 11 10 24 0 73 236 167 305 122 14 -9 25 -25 25 -36 0 -46 -120 -140 -177
-140 -20 0 -21 2 -8 49 7 27 16 54 19 60 4 6 2 11 -3 11 -6 0 -19 -28 -28 -61
-9 -34 -19 -57 -21 -50 -5 16 -32 14 -32 -4 0 -7 8 -18 18 -24 16 -9 16 -12 0
-57 -21 -60 -15 -71 10 -17 l18 41 42 -39 c50 -47 87 -51 122 -14 13 14 21 27
18 30 -2 3 -15 -6 -28 -20 -13 -14 -32 -25 -42 -25 -21 0 -98 67 -98 85 0 8
23 21 51 30 70 24 149 99 149 143 0 61 -78 79 -190 43z"/>
<path d="M1882 2328 c-14 -18 -31 -93 -32 -140 0 -33 -5 -41 -39 -63 -67 -45
-138 -31 -124 23 4 17 2 23 -6 18 -20 -13 -12 -55 14 -72 31 -20 70 -14 125
21 22 14 40 21 40 15 0 -20 41 -50 68 -50 15 0 46 11 70 25 40 23 42 23 42 4
0 -31 28 -34 58 -6 l27 26 22 -25 c26 -29 62 -31 119 -5 39 18 43 18 58 2 25
-24 120 -21 172 7 l42 21 14 -20 c22 -34 92 -36 167 -6 l63 26 -5 -22 c-3 -12
-14 -47 -25 -77 l-20 -55 -102 -3 c-118 -3 -115 5 -46 -127 28 -55 64 -103
116 -156 83 -83 137 -117 250 -157 65 -23 91 -26 195 -26 98 1 131 5 179 22
124 46 215 128 277 248 52 104 57 91 34 -87 -10 -79 -20 -118 -31 -126 -22
-16 -195 -70 -274 -85 -37 -7 -139 -12 -240 -12 -208 1 -281 16 -429 91 -122
61 -210 146 -268 259 -22 43 -46 96 -53 117 l-12 37 -725 0 -725 0 6 -27 c4
-16 38 -91 76 -168 176 -356 479 -637 850 -786 528 -212 1130 -133 1578 206
240 181 405 390 523 660 l49 110 -138 3 -138 3 20 63 c29 88 46 105 99 99 31
-4 46 -1 56 10 11 14 9 15 -18 4 -22 -8 -36 -8 -55 1 -16 7 -28 8 -31 2 -10
-16 -25 -11 -25 7 0 15 -1 15 -12 1 -7 -9 -29 -26 -48 -37 -56 -34 -104 -26
-122 18 -9 24 -11 25 -22 7 -6 -10 -19 -28 -28 -40 l-17 -21 -1 22 c0 12 14
33 31 48 17 14 29 28 27 31 -3 3 -20 -7 -37 -21 -22 -19 -31 -36 -31 -56 0
-34 15 -37 45 -9 20 18 23 19 35 5 18 -22 88 -19 128 5 38 24 41 13 7 -38 -13
-20 -29 -52 -36 -69 l-11 -33 -438 0 -438 0 18 71 c17 66 41 109 62 109 18 0
7 -38 -14 -49 -19 -9 -10 -10 47 -6 66 6 155 37 155 55 0 4 -18 -2 -40 -13
-23 -11 -61 -22 -85 -25 -41 -4 -43 -3 -38 17 7 26 -21 39 -48 22 -15 -9 -19
-8 -19 4 0 11 -12 7 -42 -15 -47 -33 -125 -52 -166 -41 -38 10 -37 25 3 40 19
7 35 19 35 27 0 25 -30 28 -58 5 -81 -64 -198 -94 -238 -60 -14 12 -12 14 17
24 23 8 35 19 37 33 5 34 -21 27 -72 -18 -52 -44 -106 -63 -142 -50 -37 15
-39 48 -5 117 34 67 40 113 16 113 -23 0 -46 -44 -58 -113 -9 -57 -13 -64 -28
-54 -13 8 -25 5 -50 -11 -108 -68 -146 -75 -169 -31 -9 16 -6 33 14 85 32 79
37 127 15 132 -9 1 -21 -3 -27 -10z m11 -91 l-18 -52 -3 37 c-2 20 5 53 14 75
15 33 18 35 21 15 3 -12 -4 -46 -14 -75z m275 11 c-14 -32 -24 -46 -26 -36 -4
21 39 118 45 101 2 -6 -6 -35 -19 -65z m207 -87 c-3 -6 -14 -11 -23 -11 -15 1
-15 2 2 15 21 16 32 13 21 -4z m225 -6 c-27 -14 -36 -13 -25 4 3 6 16 11 28
11 21 -1 21 -1 -3 -15z m-512 -42 c-29 -31 -48 -14 -24 22 14 22 20 24 32 14
13 -10 12 -15 -8 -36z m1588 -120 c-19 -35 -22 -7 -4 33 9 20 14 23 16 11 2
-8 -4 -28 -12 -44z"/>
<path d="M1675 2199 c-11 -17 1 -21 15 -4 8 9 8 15 2 15 -6 0 -14 -5 -17 -11z"/>
<path d="M3710 2195 c-8 -9 -8 -15 -2 -15 12 0 26 19 19 26 -2 2 -10 -2 -17
-11z"/>
</g>
</svg>
